HIERARCHY
ROOT hip
{
  OFFSET 0 0 0
  CHANNELS 6 Xposition Yposition Zposition Zrotation Yrotation Xrotation
  JOINT abdomen
  {
    OFFSET 0 20.6881 -0.73152
    CHANNELS 3 Zrotation Xrotation Yrotation
    JOINT chest
    {
      OFFSET 0 11.7043 -0.48768
      CHANNELS 3 Zrotation Xrotation Yrotation
      JOINT neck
      {
        OFFSET 0 22.1894 -2.19456
        CHANNELS 3 Zrotation Xrotation Yrotation
        JOINT head
        {
          OFFSET -0.24384 7.07133 1.2192
          CHANNELS 3 Zrotation Xrotation Yrotation
          JOINT leftEye
          {
            OFFSET 4.14528 8.04674 8.04672
            CHANNELS 3 Zrotation Xrotation Yrotation
            End Site
            {
              OFFSET 1 0 0
            }
          }
          JOINT rightEye
          {
            OFFSET -3.6576 8.04674 8.04672
            CHANNELS 3 Zrotation Xrotation Yrotation
            End Site
            {
              OFFSET 1 0 0
            }
          }
        }
      }
      JOINT rCollar
      {
        OFFSET -2.68224 19.2634 -4.8768
        CHANNELS 3 Zrotation Xrotation Yrotation
        JOINT rShldr
        {
          OFFSET -8.77824 -1.95073 1.46304
          CHANNELS 3 Zrotation Xrotation Yrotation
          JOINT rForeArm
          {
            OFFSET -28.1742 -1.7115 0.48768
            CHANNELS 3 Zrotation Xrotation Yrotation
            JOINT rHand
            {
              OFFSET -22.5879 0.773209 7.07136
              CHANNELS 3 Zrotation Xrotation Yrotation
              JOINT rThumb1
              {
                OFFSET -1.2192 -0.487915 3.41376
                CHANNELS 3 Zrotation Xrotation Yrotation
                JOINT rThumb2
                {
                  OFFSET -3.37035 -0.52449 3.41376
                  CHANNELS 3 Zrotation Xrotation Yrotation
                  End Site
                  {
                    OFFSET -1.78271 -1.18214 1.43049
                  }
                }
              }
              JOINT rIndex1
              {
                OFFSET -7.75947 0.938293 5.60832
                CHANNELS 3 Zrotation Xrotation Yrotation
                JOINT rIndex2
                {
                  OFFSET -2.54057 -0.884171 1.56538
                  CHANNELS 3 Zrotation Xrotation Yrotation
                  End Site
                  {
                    OFFSET -1.62519 -0.234802 1.16502
                  }
                }
              }
              JOINT rMid1
              {
                OFFSET -8.24714 1.18213 3.41376
                CHANNELS 3 Zrotation Xrotation Yrotation
                JOINT rMid2
                {
                  OFFSET -3.10165 -0.590103 1.0647
                  CHANNELS 3 Zrotation Xrotation Yrotation
                  End Site
                  {
                    OFFSET -2.48547 -0.328903 0.83742
                  }
                }
              }
              JOINT rRing1
              {
                OFFSET -8.82822 0.546677 1.51678
                CHANNELS 3 Zrotation Xrotation Yrotation
                JOINT rRing2
                {
                  OFFSET -2.60934 -0.819778 -0.0198488
                  CHANNELS 3 Zrotation Xrotation Yrotation
                  End Site
                  {
                    OFFSET -2.33842 -0.294052 0.168128
                  }
                }
              }
              JOINT rPinky1
              {
                OFFSET -8.27202 -0.0477905 -0.4584
                CHANNELS 3 Zrotation Xrotation Yrotation
                JOINT rPinky2
                {
                  OFFSET -1.82734 -0.647385 -0.700984
                  CHANNELS 3 Zrotation Xrotation Yrotation
                  End Site
                  {
                    OFFSET -1.69225 -0.51767 -0.607171
                  }
                }
              }
            }
          }
        }
      }
      JOINT lCollar
      {
        OFFSET 2.68224 19.2634 -4.8768
        CHANNELS 3 Zrotation Xrotation Yrotation
        JOINT lShldr
        {
          OFFSET 8.77824 -1.95073 1.46304
          CHANNELS 3 Zrotation Xrotation Yrotation
          JOINT lForeArm
          {
            OFFSET 28.1742 -1.7115 0.48768
            CHANNELS 3 Zrotation Xrotation Yrotation
            JOINT lHand
            {
              OFFSET 22.5879 0.773209 7.07136
              CHANNELS 3 Zrotation Xrotation Yrotation
              JOINT lThumb1
              {
                OFFSET 1.2192 -0.487915 3.41376
                CHANNELS 3 Zrotation Xrotation Yrotation
                JOINT lThumb2
                {
                  OFFSET 3.37035 -0.52449 3.41376
                  CHANNELS 3 Zrotation Xrotation Yrotation
                  End Site
                  {
                    OFFSET 1.78271 -1.18214 1.43049
                  }
                }
              }
              JOINT lIndex1
              {
                OFFSET 7.75947 0.938293 5.60832
                CHANNELS 3 Zrotation Xrotation Yrotation
                JOINT lIndex2
                {
                  OFFSET 2.54057 -0.884171 1.56538
                  CHANNELS 3 Zrotation Xrotation Yrotation
                  End Site
                  {
                    OFFSET 1.62519 -0.234802 1.16502
                  }
                }
              }
              JOINT lMid1
              {
                OFFSET 8.24714 1.18213 3.41376
                CHANNELS 3 Zrotation Xrotation Yrotation
                JOINT lMid2
                {
                  OFFSET 3.10165 -0.590103 1.0647
                  CHANNELS 3 Zrotation Xrotation Yrotation
                  End Site
                  {
                    OFFSET 2.48547 -0.328903 0.83742
                  }
                }
              }
              JOINT lRing1
              {
                OFFSET 8.82822 0.546677 1.51678
                CHANNELS 3 Zrotation Xrotation Yrotation
                JOINT lRing2
                {
                  OFFSET 2.60934 -0.819778 -0.0198488
                  CHANNELS 3 Zrotation Xrotation Yrotation
                  End Site
                  {
                    OFFSET 2.33842 -0.294052 0.168128
                  }
                }
              }
              JOINT lPinky1
              {
                OFFSET 8.27202 -0.0477905 -0.4584
                CHANNELS 3 Zrotation Xrotation Yrotation
                JOINT lPinky2
                {
                  OFFSET 1.82734 -0.647385 -0.700984
                  CHANNELS 3 Zrotation Xrotation Yrotation
                  End Site
                  {
                    OFFSET 1.69225 -0.51767 -0.607171
                  }
                }
              }
            }
          }
        }
      }
    }
  }
  JOINT rButtock
  {
    OFFSET -8.77824 4.35084 1.2192
    CHANNELS 3 Zrotation Xrotation Yrotation
    JOINT rThigh
    {
      OFFSET 0 -1.70687 -2.19456
      CHANNELS 3 Zrotation Xrotation Yrotation
      JOINT rShin
      {
        OFFSET 0 -36.8199 0.73152
        CHANNELS 3 Zrotation Xrotation Yrotation
        JOINT rFoot
        {
          OFFSET 0.73152 -45.1104 -5.12064
          CHANNELS 3 Zrotation Xrotation Yrotation
          End Site
          {
            OFFSET -1.1221 -3.69964 12.103
          }
        }
      }
    }
  }
  JOINT lButtock
  {
    OFFSET 8.77824 4.35084 1.2192
    CHANNELS 3 Zrotation Xrotation Yrotation
    JOINT lThigh
    {
      OFFSET 0 -1.70687 -2.19456
      CHANNELS 3 Zrotation Xrotation Yrotation
      JOINT lShin
      {
        OFFSET 0 -36.8199 0.73152
        CHANNELS 3 Zrotation Xrotation Yrotation
        JOINT lFoot
        {
          OFFSET -0.73152 -45.1104 -5.12064
          CHANNELS 3 Zrotation Xrotation Yrotation
          End Site
          {
            OFFSET 1.1221 -3.69964 12.103
          }
        }
      }
    }
  }
}
MOTION
Frames:	4
Frame Time:	0.00833333
133.05 78.9466 -38.0228 -2.0998 -44.0702 10.8386 -7.68708 -2.10786 -8.27252 3.78176 3.65798 -2.31644 -0.901316 17.1814 -5.9429 9.39474 -46.9222 -8.71548 -0.0 0.0 0.0 -0.0 0.0 0.0 -9.07266e-14 -1.60777e-12 -1.36446e-12 79.4918 38.8418 -3.43934 -21.6401 -15.226 42.8276 -0.116946 9.70568 1.37738 3.08766e-09 -4.62665e-09 8.7728e-10 5.34464e-09 -8.0143e-09 1.49276e-09 3.08767e-09 -4.62665e-09 8.7727e-10 7.73091 5.47488 0.417314 3.08766e-09 -4.62665e-09 8.77276e-10 2.90554 0.965183 0.102902 3.08767e-09 -4.62665e-09 8.77277e-10 10.2786 0.731801 0.0259123 3.08766e-09 -4.62665e-09 8.77286e-10 2.22167 -0.733487 -0.20892 -9.06703e-14 -1.60777e-12 -1.36461e-12 -55.5521 60.4008 -5.21741 26.3117 -24.262 -58.0988 0.047183 6.18725 -0.872992 -5.89794e-09 6.00851e-09 9.44159e-09 -1.01455e-08 1.03849e-08 1.6362e-08 -5.89794e-09 6.00851e-09 9.44159e-09 -7.73091 5.47488 -0.417314 -5.89794e-09 6.00851e-09 9.44158e-09 -2.90554 0.965183 -0.102902 -5.89794e-09 6.00851e-09 9.44159e-09 -10.2786 0.731801 -0.0259123 -5.89793e-09 6.00851e-09 9.44158e-09 -2.22167 -0.733487 0.20892 -2.03217e-16 0.0 -3.88251e-19 -8.70079 -62.1193 -4.7466 -0.376416 40.4117 0.548946 -0.185456 -2.67162 1.92133 2.03217e-16 0.0 3.88251e-19 -8.45106 12.3354 7.59413 -0.067009 14.6098 -1.06112 6.42872 -33.7585 9.86155
132.08 79.0681 -37.3394 -2.0971 -44.4792 10.6026 -7.44232 -2.33606 -8.51318 3.59319 3.7331 -2.38146 -0.962823 17.2214 -5.75555 9.34044 -46.8325 -8.34386 -0.0 0.0 0.0 -0.0 0.0 0.0 -7.62041e-14 -1.31789e-12 -1.07254e-12 81.1279 38.4486 -5.48817 -21.9638 -15.7065 43.6752 -0.064365 7.85101 1.10905 2.4685e-09 -3.73019e-09 5.09331e-10 4.27176e-09 -6.46052e-09 8.62384e-10 2.46851e-09 -3.73019e-09 5.09321e-10 7.73091 5.47488 0.417314 2.46851e-09 -3.73019e-09 5.09328e-10 2.90554 0.965183 0.102902 2.46851e-09 -3.73019e-09 5.09328e-10 10.2786 0.731801 0.0259123 2.4685e-09 -3.73019e-09 5.09337e-10 2.22167 -0.733487 -0.20892 -7.61811e-14 -1.31789e-12 -1.07268e-12 -55.848 61.0342 -4.93018 26.3623 -24.4017 -58.323 0.0483509 6.25714 -0.882941 -4.69113e-09 4.89997e-09 7.65921e-09 -8.06911e-09 8.46904e-09 1.32719e-08 -4.69113e-09 4.89997e-09 7.65922e-09 -7.73091 5.47488 -0.417314 -4.69112e-09 4.89997e-09 7.65921e-09 -2.90554 0.965183 -0.102902 -4.69113e-09 4.89997e-09 7.65921e-09 -10.2786 0.731801 -0.0259123 -4.69112e-09 4.89997e-09 7.6592e-09 -2.22167 -0.733487 0.20892 -2.03217e-16 0.0 -3.88251e-19 -8.1283 -61.9748 -4.23733 -0.364363 39.9662 0.561223 -0.245546 -3.25222 1.422 2.03217e-16 0.0 3.88251e-19 -8.44432 13.7579 7.90701 -0.0719504 13.4762 -1.04255 5.82103 -32.3361 9.16625
131.063 79.2306 -36.6227 -2.1299 -44.8412 10.3708 -7.15639 -2.57435 -8.77124 3.41543 3.78564 -2.45291 -1.01657 17.2412 -5.57274 9.20855 -46.6461 -8.01808 -0.0 0.0 0.0 -0.0 0.0 0.0 -7.28669e-14 -8.29035e-13 -5.32314e-13 82.7622 38.3871 -7.70507 -22.3002 -16.2207 44.5805 -0.0191387 5.43419 0.764232 1.5471e-09 -2.2531e-09 7.49651e-11 2.67623e-09 -3.90058e-09 1.19756e-10 1.5471e-09 -2.2531e-09 7.49551e-11 7.73091 5.47488 0.417314 1.5471e-09 -2.2531e-09 7.49633e-11 2.90554 0.965183 0.102902 1.5471e-09 -2.2531e-09 7.49621e-11 10.2786 0.731801 0.0259123 1.5471e-09 -2.25309e-09 7.49708e-11 2.22167 -0.733487 -0.20892 -7.2903e-14 -8.29029e-13 -5.32463e-13 -56.5419 61.6639 -4.34201 26.4127 -24.543 -58.5494 0.0503477 6.37334 -0.899492 -2.22264e-09 2.80764e-09 4.33333e-09 -3.82033e-09 4.85209e-09 7.50456e-09 -2.22265e-09 2.80765e-09 4.33334e-09 -7.73091 5.47488 -0.417314 -2.22264e-09 2.80765e-09 4.33332e-09 -2.90554 0.965183 -0.102902 -2.22265e-09 2.80765e-09 4.33332e-09 -10.2786 0.731801 -0.0259123 -2.22264e-09 2.80765e-09 4.33331e-09 -2.22167 -0.733487 0.20892 -2.03217e-16 0.0 -3.88251e-19 -7.37731 -61.6558 -3.55058 -0.351923 39.579 0.584923 -0.34152 -4.03323 0.76291 2.03217e-16 0.0 3.88251e-19 -8.33013 15.2335 8.33375 -0.0759969 12.3463 -1.02028 4.99523 -30.6456 8.0983
130.009 79.4219 -35.8768 -2.1909 -45.1542 10.137 -6.85102 -2.82087 -9.02613 3.23385 3.81873 -2.52357 -1.04501 17.2531 -5.39718 9.02737 -46.3662 -7.72982 -0.0 0.0 0.0 -0.0 0.0 0.0 -7.12675e-14 -3.16073e-13 2.83967e-14 84.4043 38.4665 -10.0162 -22.6113 -16.7081 45.4539 0.00036834 2.95933 0.415225 6.09686e-10 -7.28182e-10 -3.04382e-10 1.05334e-09 -1.25797e-09 -5.27959e-10 6.09687e-10 -7.28181e-10 -3.04392e-10 7.73091 5.47488 0.417314 6.09684e-10 -7.28181e-10 -3.04383e-10 2.90554 0.965183 0.102902 6.0969e-10 -7.28179e-10 -3.04385e-10 10.2786 0.731801 0.0259123 6.09685e-10 -7.28178e-10 -3.04376e-10 2.22167 -0.733487 -0.20892 -7.13629e-14 -3.16064e-13 2.8222e-14 -57.5454 62.3164 -3.49117 26.4617 -24.6818 -58.772 0.0513245 6.43153 -0.907779 3.8543e-10 6.01861e-10 8.15335e-10 6.68814e-10 1.03886e-09 1.4043e-09 3.85415e-10 6.01864e-10 8.15352e-10 -7.73091 5.47488 -0.417314 3.85431e-10 6.01866e-10 8.15335e-10 -2.90554 0.965183 -0.102902 3.85424e-10 6.01866e-10 8.15332e-10 -10.2786 0.731801 -0.0259123 3.85433e-10 6.01863e-10 8.15318e-10 -2.22167 -0.733487 0.20892 -2.03217e-16 0.0 -3.88251e-19 -6.67606 -61.2231 -3.05427 -0.340329 39.2618 0.611912 -0.447648 -4.86448 0.138451 2.03217e-16 0.0 3.88251e-19 -8.1136 16.527 8.82714 -0.0778553 11.5691 -0.999581 4.07671 -28.7682 6.79141
